# This file uses centimeters as units for non-parametric coordinates.

g default
v -1.131901 1.277496 0.577021
v 0.695648 1.104092 1.222435
v 0.785088 1.879875 -0.102258
v -1.053417 1.074635 -0.997257
v -1.156849 0.000000 1.141808
v 0.880104 0.000000 1.711655
v 1.004097 0.000001 -0.979576
v -0.892813 -0.000001 -1.601021
v -0.320433 0.000001 1.595467
v 0.915623 0.839025 1.508556
v -0.352579 1.552277 1.006035
v -1.367912 0.470978 1.074768
v 1.847546 0.000000 0.661129
v 1.267822 0.635912 -0.732134
v 0.710979 1.998810 0.601904
v 0.154804 -0.000001 -1.933830
v -0.874275 0.504555 -1.453857
v -0.315758 1.633144 -0.911160
v -1.484180 -0.000000 -0.595562
v -1.421997 1.008711 -0.414841
v -0.380871 0.636122 1.689613
v 1.995815 0.619212 0.695351
v 0.174634 0.234514 -1.948837
v -1.409821 0.627781 -0.380892
v -0.488600 2.168922 0.136844
vt 0.790886 0.159325
vt 0.852090 0.061467
vt 0.846125 0.034744
vt 0.777492 0.133101
vt 0.770676 0.150000
vt 0.791078 0.142064
vt 0.792294 0.025053
vt 0.770458 0.038509
vt 0.783882 0.064229
vt 0.818045 0.027408
vt 0.791786 0.126742
vt 0.811150 0.121609
vt 0.822859 0.017354
vt 0.766979 0.063738
vt 0.782781 0.014736
vt 0.758285 0.036127
vt 0.808367 0.147897
vt 0.807010 0.136812
vt 0.797580 0.083150
vt 0.831238 0.081665
vt 0.835353 0.035589
vt 0.776811 0.160291
vt 0.799673 0.079674
vt 0.823085 0.076154
vt 0.838176 0.062282
vt 0.775051 0.173128
vt 0.763923 0.150130
vt 0.821828 0.166606
vt 0.793854 0.186318
vt 0.816126 0.116321
vt 0.835630 0.136088
vt 0.767779 0.120031
vt 0.789377 0.109362
vn 0.014401 0.780705 0.624734
vn 0.014401 0.780705 0.624734
vn 0.014401 0.780705 0.624734
vn 0.014401 0.780705 0.624734
vn 0.900335 0.417063 -0.124322
vn 0.900335 0.417063 -0.124322
vn 0.900335 0.417063 -0.124322
vn 0.900335 0.417063 -0.124322
vn -0.211937 0.723303 -0.657203
vn -0.211937 0.723303 -0.657203
vn -0.211937 0.723303 -0.657203
vn -0.211937 0.723303 -0.657203
vn -0.772489 0.629199 0.085845
vn -0.772489 0.629199 0.085845
vn -0.772489 0.629199 0.085845
vn -0.772489 0.629199 0.085845
vn 0.045053 0.967129 -0.250263
vn 0.045053 0.967129 -0.250263
vn 0.045053 0.967129 -0.250263
vn 0.045053 0.967129 -0.250263
vn -0.431790 0.794897 0.426258
vn -0.431790 0.794897 0.426258
vn -0.431790 0.794897 0.426258
vn -0.431790 0.794897 0.426258
vn -0.530981 -0.185816 0.826760
vn -0.530981 -0.185816 0.826760
vn -0.530981 -0.185816 0.826760
vn -0.530981 -0.185816 0.826760
vn 0.022232 0.122905 0.992169
vn 0.022232 0.122905 0.992169
vn 0.022232 0.122905 0.992169
vn 0.022232 0.122905 0.992169
vn 0.646493 0.492521 0.582640
vn 0.646493 0.492521 0.582640
vn 0.646493 0.492521 0.582640
vn 0.646493 0.492521 0.582640
vn 0.774615 -0.094208 0.625377
vn 0.774615 -0.094208 0.625377
vn 0.774615 -0.094208 0.625377
vn 0.774615 -0.094208 0.625377
vn 0.904424 -0.381961 -0.190058
vn 0.904424 -0.381961 -0.190058
vn 0.904424 -0.381961 -0.190058
vn 0.904424 -0.381961 -0.190058
vn 0.534571 0.603559 -0.591566
vn 0.534571 0.603559 -0.591566
vn 0.534571 0.603559 -0.591566
vn 0.534571 0.603559 -0.591566
vn 0.791001 -0.134235 -0.596907
vn 0.791001 -0.134235 -0.596907
vn 0.791001 -0.134235 -0.596907
vn 0.791001 -0.134235 -0.596907
vn -0.320660 0.391170 -0.862649
vn -0.320660 0.391170 -0.862649
vn -0.320660 0.391170 -0.862649
vn -0.320660 0.391170 -0.862649
vn -0.849375 0.337235 -0.405999
vn -0.849375 0.337235 -0.405999
vn -0.849375 0.337235 -0.405999
vn -0.849375 0.337235 -0.405999
vn -0.731340 0.586203 -0.348578
vn -0.731340 0.586203 -0.348578
vn -0.731340 0.586203 -0.348578
vn -0.731340 0.586203 -0.348578
vn -0.994883 0.067345 0.075313
vn -0.994883 0.067345 0.075313
vn -0.994883 0.067345 0.075313
vn -0.994883 0.067345 0.075313
vn -0.405798 0.876707 -0.258287
vn -0.405798 0.876707 -0.258287
vn -0.405798 0.876707 -0.258287
vn -0.405798 0.876707 -0.258287
vn -0.547473 0.804266 0.231149
vn -0.547473 0.804266 0.231149
vn -0.547473 0.804266 0.231149
vn -0.547473 0.804266 0.231149
vn -0.150413 0.786831 0.598559
vn -0.150413 0.786831 0.598559
vn -0.150413 0.786831 0.598559
vn -0.150413 0.786831 0.598559
s off
g Rock_01
f 21/33/1 10/30/2 2/12/3 11/11/4
f 22/31/5 14/28/6 3/17/7 15/18/8
f 23/29/9 17/26/10 4/22/11 18/1/12
f 24/27/13 12/32/14 1/4/15 20/5/16
f 25/6/17 15/18/18 3/17/19 18/1/20
f 12/32/21 21/33/22 11/11/23 1/4/24
f 5/21/25 9/10/26 21/13/27 12/3/28
f 9/10/29 6/7/30 10/15/31 21/13/32
f 10/30/33 22/31/34 15/18/35 2/12/36
f 6/7/37 13/8/38 22/16/39 10/15/40
f 13/8/41 7/9/42 14/14/43 22/16/44
f 14/28/45 23/29/46 18/1/47 3/17/48
f 7/9/49 16/23/50 23/19/51 14/14/52
f 16/23/53 8/24/54 17/20/55 23/19/56
f 17/26/57 24/27/58 20/5/59 4/22/60
f 8/24/61 19/25/62 24/2/63 17/20/64
f 19/25/65 5/21/66 12/3/67 24/2/68
f 20/5/69 25/6/70 18/1/71 4/22/72
f 1/4/73 11/11/74 25/6/75 20/5/76
f 11/11/77 2/12/78 15/18/79 25/6/80
