# This file uses centimeters as units for non-parametric coordinates.

g default
v -8.481998 -0.119091 -1.362772
v 9.791841 -0.150036 -1.355511
v -8.481612 0.157564 -1.363308
v 9.792235 0.126635 -1.356009
v -6.602973 0.148653 -4.644488
v 11.072989 0.118563 -4.629960
v -6.603350 -0.127998 -4.643957
v 11.072620 -0.158083 -4.629405
v 11.990783 0.305429 -1.720490
v -9.927919 0.341482 -1.736189
v -9.928812 -0.300348 -1.734939
v 11.989889 -0.336397 -1.719234
v 12.326837 0.300047 -4.295011
v -9.956599 0.337009 -4.095218
v -9.957492 -0.304834 -4.094000
v 12.325929 -0.341801 -4.293798
v 12.645255 0.303679 -2.159203
v -10.658209 0.341801 -2.105346
v -10.659112 -0.300039 -2.104120
v 12.644371 -0.338156 -2.157959
v 12.058659 0.303003 -2.943682
v -9.942138 0.339266 -2.905665
v -9.943041 -0.302576 -2.904434
v 12.057735 -0.338848 -2.942479
v 11.715909 0.301910 -3.762250
v -10.076524 0.337889 -3.726744
v -10.077421 -0.303957 -3.725513
v 11.715010 -0.339928 -3.761023
vt 0.890722 0.244108
vt 0.971017 0.243709
vt 0.971012 0.244553
vt 0.890737 0.244936
vt 0.980050 0.245749
vt 0.885036 0.246151
vt 0.899365 0.254962
vt 0.975697 0.254678
vt 0.975868 0.255503
vt 0.899250 0.255796
vt 0.884731 0.242929
vt 0.980137 0.242454
vt 0.971790 0.243811
vt 0.982300 0.244611
vt 0.882602 0.245127
vt 0.889782 0.244202
vt 0.982434 0.247042
vt 0.882139 0.247279
vt 0.880123 0.247641
vt 0.881812 0.241845
vt 0.982643 0.241132
vt 0.984570 0.247264
vt 0.885208 0.253244
vt 0.980805 0.253520
vt 0.883755 0.254713
vt 0.898967 0.234015
vt 0.975598 0.233581
vt 0.980912 0.234695
vt 0.884746 0.235844
vt 0.982248 0.254717
vt 0.980244 0.249426
vt 0.885085 0.249693
vt 0.882161 0.250358
vt 0.884651 0.239421
vt 0.980217 0.238772
vt 0.982850 0.250056
vt 0.978633 0.251924
vt 0.884641 0.252156
vt 0.882533 0.253141
vt 0.884235 0.236955
vt 0.978719 0.236298
vt 0.981854 0.252195
vn -0.012552 -0.500000 0.865934
vn -0.012552 -0.500000 0.865934
vn -0.012552 -0.500000 0.865934
vn -0.012552 -0.500000 0.865934
vn -0.005416 0.553879 0.832580
vn -0.005416 0.553879 0.832580
vn -0.000113 0.852017 0.523515
vn -0.000255 0.846099 0.533025
vn 0.012976 0.499914 -0.865978
vn 0.012976 0.499914 -0.865978
vn 0.012976 0.499914 -0.865978
vn 0.012976 0.499914 -0.865978
vn -0.000727 -0.884672 -0.466213
vn -0.000583 -0.879373 -0.476132
vn -0.005882 -0.997945 -0.063808
vn -0.005882 -0.997945 -0.063808
vn 0.151401 -0.494241 0.856040
vn 0.292816 -0.478075 0.828072
vn 0.292818 -0.478075 0.828071
vn 0.151401 -0.494241 0.856040
vn -0.354257 -0.467555 0.809873
vn -0.261139 -0.482624 0.835991
vn -0.261139 -0.482624 0.835991
vn -0.354260 -0.467554 0.809872
vn -0.000255 0.846099 0.533025
vn -0.000113 0.852017 0.523515
vn 0.000233 0.866019 0.500012
vn 0.000233 0.866018 0.500013
vn -1.000000 0.000013 -0.000002
vn -0.354257 -0.467555 0.809873
vn -0.354260 -0.467554 0.809872
vn -1.000000 0.000009 0.000005
vn -0.000233 -0.866025 -0.500000
vn -0.000233 -0.866026 -0.499999
vn -0.000583 -0.879373 -0.476132
vn -0.000727 -0.884672 -0.466213
vn 0.292818 -0.478075 0.828071
vn 0.292816 -0.478075 0.828072
vn 0.997718 -0.033737 0.058487
vn 0.997719 -0.033729 0.058473
vn 0.000461 0.880236 0.474537
vn 0.001099 0.917237 0.398341
vn 0.003135 0.991708 0.128473
vn 0.003135 0.991708 0.128473
vn -0.149711 0.494368 -0.856263
vn -0.281813 0.479737 -0.830924
vn -0.281820 0.479736 -0.830922
vn -0.149711 0.494368 -0.856263
vn 0.002655 -0.606239 -0.795278
vn 0.002655 -0.606239 -0.795278
vn 0.000614 -0.803255 -0.595636
vn -0.000019 -0.850820 -0.525457
vn 0.967489 0.126443 -0.219035
vn 0.967485 0.126452 -0.219049
vn 0.270099 0.481413 -0.833840
vn 0.270099 0.481413 -0.833840
vn 0.000233 0.866018 0.500013
vn 0.000233 0.866019 0.500012
vn 0.000236 0.866031 0.499991
vn 0.000237 0.866034 0.499985
vn -0.937085 0.174551 -0.302331
vn -1.000000 0.000013 -0.000002
vn -1.000000 0.000009 0.000005
vn -0.937086 0.174549 -0.302327
vn -0.000237 -0.866037 -0.499981
vn -0.000236 -0.866034 -0.499986
vn -0.000233 -0.866026 -0.499999
vn -0.000233 -0.866025 -0.500000
vn 0.997719 -0.033729 0.058473
vn 0.997718 -0.033737 0.058487
vn 0.871165 0.245492 -0.425213
vn 0.871160 0.245496 -0.425219
vn 0.000237 0.866034 0.499985
vn 0.000236 0.866031 0.499991
vn 0.000241 0.866004 0.500036
vn 0.000241 0.866015 0.500018
vn -1.000000 0.000000 -0.000007
vn -0.937085 0.174551 -0.302331
vn -0.937086 0.174549 -0.302327
vn -1.000000 0.000000 -0.000007
vn -0.000241 -0.866015 -0.500019
vn -0.000241 -0.866005 -0.500036
vn -0.000236 -0.866034 -0.499986
vn -0.000237 -0.866037 -0.499981
vn 0.871160 0.245496 -0.425219
vn 0.871165 0.245492 -0.425213
vn 0.978432 -0.103295 0.178891
vn 0.978431 -0.103297 0.178894
vn 0.000241 0.866015 0.500018
vn 0.000241 0.866004 0.500036
vn 0.001099 0.917237 0.398341
vn 0.000461 0.880236 0.474537
vn -0.281813 0.479737 -0.830924
vn -1.000000 0.000000 -0.000007
vn -1.000000 0.000000 -0.000007
vn -0.281820 0.479736 -0.830922
vn -0.000019 -0.850820 -0.525457
vn 0.000614 -0.803255 -0.595636
vn -0.000241 -0.866005 -0.500036
vn -0.000241 -0.866015 -0.500019
vn 0.978431 -0.103297 0.178894
vn 0.978432 -0.103295 0.178891
vn 0.967485 0.126452 -0.219049
vn 0.967489 0.126443 -0.219035
s off
g RoofPlank_02
f 1/1/1 2/2/2 4/3/3 3/4/4
f 3/4/5 4/3/6 9/5/7 10/6/8
f 5/7/9 6/8/10 8/9/11 7/10/12
f 11/11/13 12/12/14 2/2/15 1/1/16
f 2/13/17 12/14/18 9/5/19 4/3/20
f 11/15/21 1/16/22 3/4/23 10/6/24
f 10/6/25 9/5/26 17/17/27 18/18/28
f 19/19/29 11/15/30 10/6/31 18/18/32
f 19/20/33 20/21/34 12/12/35 11/11/36
f 9/5/37 12/14/38 20/22/39 17/17/40
f 14/23/41 13/24/42 6/8/43 5/7/44
f 7/10/45 15/25/46 14/23/47 5/7/48
f 7/26/49 8/27/50 16/28/51 15/29/52
f 13/24/53 16/30/54 8/9/55 6/8/56
f 18/18/57 17/17/58 21/31/59 22/32/60
f 23/33/61 19/19/62 18/18/63 22/32/64
f 23/34/65 24/35/66 20/21/67 19/20/68
f 17/17/69 20/22/70 24/36/71 21/31/72
f 22/32/73 21/31/74 25/37/75 26/38/76
f 27/39/77 23/33/78 22/32/79 26/38/80
f 27/40/81 28/41/82 24/35/83 23/34/84
f 21/31/85 24/36/86 28/42/87 25/37/88
f 26/38/89 25/37/90 13/24/91 14/23/92
f 15/25/93 27/39/94 26/38/95 14/23/96
f 15/29/97 16/28/98 28/41/99 27/40/100
f 25/37/101 28/42/102 16/30/103 13/24/104
